<svg version="1.1" xmlns="http://www.w3.org/2000/svg" xmlns:xlink="http://www.w3.org/1999/xlink" width="48" height="48"><defs><linearGradient x1="11.08449" y1="11.08449" x2="56.07796" y2="56.07796" gradientUnits="userSpaceOnUse" id="color-1"><stop offset="0" stop-color="#000000" stop-opacity="0.28"></stop><stop offset="1" stop-color="#000000" stop-opacity="0"></stop></linearGradient><filter id="dropshadow-base"><feColorMatrix type="matrix" values="0 0 0 0 0  0 0 0 0 0  0 0 0 0 0  0 0 0 .8 0"></feColorMatrix> <feOffset dx="0" dy="1"></feOffset> <feGaussianBlur stdDeviation="1"></feGaussianBlur> <feComposite in="SourceGraphic"></feComposite></filter><filter id="dropshadow-banner" x="-10%" y="-10%" width="120%" height="130%"><feColorMatrix type="matrix" values="0 0 0 0 0  0 0 0 0 0  0 0 0 0 0  0 0 0 .4 0"></feColorMatrix> <feOffset dx="0" dy="1"></feOffset> <feGaussianBlur stdDeviation="0.5"></feGaussianBlur> <feComposite in="SourceGraphic"></feComposite></filter></defs><g fill="none" fill-rule="nonzero" stroke="none" stroke-width="none" stroke-linecap="butt" stroke-linejoin="miter" stroke-miterlimit="10" stroke-dasharray="" stroke-dashoffset="0" font-family="none" font-weight="none" font-size="none" text-anchor="none" style="mix-blend-mode: normal"><path d="M7,43c-1.10457,0 -2,-0.89543 -2,-2v-34c0,-1.10457 0.89543,-2 2,-2h34c1.10457,0 2,0.89543 2,2v26l-10,10z" id="base 1 5 1 1 1 1 1 1 1 2" fill="#3f51b5" stroke-width="1"></path><path d="M11.08449,34.33241v-18.08172h2.5831l2.5831,2.5831v-5.1662c0,-1.42716 1.15594,-2.5831 2.5831,-2.5831h15.49861c0.71358,0 1.35936,0.28898 1.82674,0.75636l6.84085,6.84085v14.31829l-10,10h-14.31829l-6.84085,-6.84085l0,0c-0.46738,-0.46738 -0.75636,-1.11316 -0.75636,-1.82674z" fill="url(#color-1)" stroke-width="1"></path><path d="M34.33241,11.08449h-15.49861c-1.42716,0 -2.5831,1.15594 -2.5831,2.5831v15.49861c0,1.42716 1.15594,2.5831 2.5831,2.5831h15.49861c1.42716,0 2.5831,-1.15594 2.5831,-2.5831v-15.49861c0,-1.42716 -1.15594,-2.5831 -2.5831,-2.5831zM31.74931,17.54224h-3.87465v7.10353c0,1.78234 -1.44654,3.22888 -3.22888,3.22888c-1.78234,0 -3.22888,-1.44654 -3.22888,-3.22888c0,-1.78234 1.44654,-3.22888 3.22888,-3.22888c0.72973,0 1.39488,0.25185 1.93733,0.65869v-7.11645h5.1662zM13.66759,16.25069h-2.5831v18.08172c0,1.42716 1.15594,2.5831 2.5831,2.5831h18.08172v-2.5831h-18.08172z" fill="none" stroke-width="0"></path><path d="M36.91551,13.66759v15.49861c0,1.42716 -1.15594,2.5831 -2.5831,2.5831h-15.49861c-1.42716,0 -2.5831,-1.15594 -2.5831,-2.5831v-15.49861c0,-1.42716 1.15594,-2.5831 2.5831,-2.5831h15.49861c1.42716,0 2.5831,1.15594 2.5831,2.5831zM31.74931,14.95914h-5.1662v7.11645c-0.54245,-0.40684 -1.2076,-0.65869 -1.93733,-0.65869c-1.78234,0 -3.22888,1.44654 -3.22888,3.22888c0,1.78234 1.44654,3.22888 3.22888,3.22888c1.78234,0 3.22888,-1.44654 3.22888,-3.22888v-7.10353h3.87465zM13.66759,34.33241h18.08172v2.5831h-18.08172c-1.42716,0 -2.5831,-1.15594 -2.5831,-2.5831v-18.08172h2.5831z" fill="#ffffff" stroke-width="0"></path><path d="M2,24c0,-12.15026 9.84974,-22 22,-22c12.15026,0 22,9.84974 22,22c0,12.15026 -9.84974,22 -22,22c-12.15026,0 -22,-9.84974 -22,-22z" id="base 1 1 1" fill="none" stroke-width="1"></path><g fill="#000000" stroke-width="1" font-family="Roboto, sans-serif" font-weight="400" font-size="14" text-anchor="start"></g><rect x="2" y="2" width="44" height="22" fill="none" stroke-width="1"></rect><path d="M2,24v-22h44v22z" fill="none" stroke-width="1"></path><path d="M2,24v-22h44v22z" fill="none" stroke-width="1"></path><path d="M2,24v-22h44v22z" fill="none" stroke-width="1"></path><path d="M2,24v-22h44v22z" fill="none" stroke-width="1"></path><path d="M43,33l-10,10v-8c0,-1 1,-2 2,-2z" fill="#5d6fd3" stroke-width="1"></path></g></svg>